# xmcd CD database file
#
# Track frame offsets:
#	150
#	16157
#	29858
#	43479
#	55773
#	70129
#	82343
#	92735
#	111048
#	121312
#	138357
#	152333
#	163990
#	175100
#	193768
#	202868
#	214838
#	238790
#	253526
#	266977
#
# Disc length: 3746 seconds
#
# Revision: 0
# Processed by: cddbd v1.5.2PL0 Copyright (c) Steve Scherf et al.
# Submitted via: CDex 1.79
#
DISCID=260ea014
DTITLE=Steve Barker - 20 Classic Songs
DYEAR=2005
DGENRE=Country
TTITLE0=Night Life
TTITLE1=Sea Of Heartbreak
TTITLE2=Mountain Of Love
TTITLE3=Help Me Make It Through The Night
TTITLE4=I'd Love To Lay You Down
TTITLE5=Fourteen Karat Mind
TTITLE6=Abilene
TTITLE7=Middle Age Crazy
TTITLE8=Is Anybody Going To San Antone?
TTITLE9=For The Good Times
TTITLE10=I Still Miss Someone
TTITLE11=From A Jack To A King
TTITLE12=King Of The Road
TTITLE13=Funny How Time Slips Away
TTITLE14=Kiss An Angel Good Morning
TTITLE15=It Keeps Right On A-Hurtin'
TTITLE16=A Rainy Night In Georgia
TTITLE17=Blue Suede Shoes (Live)
TTITLE18=One Woman Man (Live)
TTITLE19=Honeycomb (Live)
EXTD=YEAR: 2005
EXTT0=
EXTT1=
EXTT2=
EXTT3=
EXTT4=
EXTT5=
EXTT6=
EXTT7=
EXTT8=
EXTT9=
EXTT10=
EXTT11=
EXTT12=
EXTT13=
EXTT14=
EXTT15=
EXTT16=
EXTT17=
EXTT18=
EXTT19=
PLAYORDER=
